<svg width="24" height="20" fill="none" xmlns="http://www.w3.org/2000/svg"><g fill="#00FED0"><path d="M2.304 6.384c.303.214 1.218.85 2.745 1.909a672.48 672.48 0 013.509 2.444c.09.062.279.198.569.408.29.21.531.38.723.51.192.129.424.274.697.434.272.16.529.282.77.361.241.081.464.121.67.121h.027c.205 0 .428-.04.67-.12.24-.08.497-.201.77-.362.272-.16.504-.306.696-.435.192-.13.433-.299.723-.509.29-.21.48-.346.57-.409l6.267-4.352a6.363 6.363 0 001.634-1.647C23.78 4.094 24 3.42 24 2.715c0-.59-.212-1.094-.636-1.514a2.07 2.07 0 00-1.507-.63H2.143c-.688 0-1.217.233-1.587.697C.186 1.732 0 2.313 0 3.009c0 .562.246 1.172.737 1.828.49.656 1.013 1.172 1.567 1.547z"/><path d="M22.66 7.817c-2.928 1.982-5.151 3.522-6.669 4.62-.509.375-.922.668-1.239.878-.317.21-.738.424-1.265.643-.527.219-1.018.328-1.473.328h-.027c-.456 0-.947-.11-1.474-.329-.526-.218-.948-.432-1.265-.642a32.98 32.98 0 01-1.239-.877c-1.205-.884-3.424-2.425-6.656-4.621-.51-.34-.96-.728-1.353-1.165v10.633c0 .59.21 1.094.63 1.514.419.42.924.63 1.513.63h19.714c.59 0 1.094-.21 1.514-.63.42-.42.629-.924.629-1.514V6.652c-.384.428-.83.817-1.34 1.165z"/></g></svg>