<svg width="20" height="20" fill="none" xmlns="http://www.w3.org/2000/svg"><path d="M14.413 16.479c-.837-.48-1.45-1.246-1.683-2.1a2.627 2.627 0 01.08-1.685l-2.634-1.506a1218.29 1218.29 0 00-6.53 3.571c-1.07.612-2.258-.392-2.307-.435L1 14.032l7.075-4.045L1 5.942l.338-.291c.05-.044 1.237-1.048 2.307-.436.437.25 4.073 2.233 6.53 3.571L12.81 7.28a2.628 2.628 0 01-.08-1.685c.233-.854.846-1.62 1.683-2.1 1.577-.901 3.488-.538 4.26.811.216.377.326.794.326 1.24 0 .246-.02.5-.102.743-.492 1.446-1.674 2.186-2.887 2.541-.052.015-2.943.728-3.572 1.127l-.057.03.057.031c.63.398 3.52 1.112 3.572 1.127 1.213.354 2.396 1.095 2.887 2.54.083.243.102.498.102.743 0 .447-.11.864-.327 1.241-.772 1.348-2.683 1.711-4.26.81zm2.134-9.258c.523-.3.917-.78 1.054-1.284.036-.133.054-.263.054-.388 0-.21-.05-.402-.149-.573-.402-.706-1.491-.846-2.425-.313-.53.304-.913.773-1.052 1.284-.095.349-.065.686.093.963.405.705 1.493.844 2.425.311zm.96 7.777c.098-.171.148-.364.148-.573a1.48 1.48 0 00-.054-.388c-.136-.504-.531-.985-1.054-1.284-.932-.534-2.02-.394-2.424.31-.158.278-.188.615-.093.964.138.511.522.98 1.052 1.283.933.534 2.021.394 2.424-.312z" fill="#00FED0"/></svg>