<svg width="24" height="24" viewBox="0 0 20 20" fill="none" xmlns="http://www.w3.org/2000/svg">
  <path d="M14.413 16.4786C13.5765 15.9981 12.9637 15.2333 12.7305 14.3789C12.5717 13.7979 12.6016 13.2078 12.8106 12.6943L10.1757 11.1881C7.71837 12.5267 4.08274 14.5092 3.64548 14.7594C2.57583 15.3714 1.38824 14.3669 1.33857 14.3239L1 14.0321L8.07468 9.98738L1.00056 5.94238L1.33917 5.65065C1.3888 5.60725 2.57639 4.60289 3.64618 5.21469C4.08298 5.46468 7.71865 7.44762 10.1762 8.78628L12.8111 7.27992C12.6021 6.76607 12.5722 6.17634 12.731 5.59498C12.964 4.74085 13.577 3.97575 14.4138 3.49569C15.9907 2.5936 17.9018 2.95731 18.6733 4.306C18.8901 4.68258 19 5.1 19 5.54656C19 5.79182 18.9808 6.0466 18.8982 6.28894C18.4062 7.73475 17.2243 8.47526 16.011 8.82996C15.9588 8.84515 13.0683 9.55848 12.4386 9.95681C12.4386 9.95681 12.416 9.96912 12.3822 9.98738C12.416 10.0055 12.4386 10.0181 12.4386 10.0181C13.0683 10.4164 15.9588 11.1296 16.011 11.145C17.2242 11.499 18.4065 12.2402 18.8982 13.6858C18.9808 13.928 19 14.1828 19 14.4281C19 14.8748 18.8901 15.292 18.6733 15.669C17.9009 17.0169 15.9902 17.3802 14.413 16.4786ZM16.5471 7.22104C17.0697 6.92151 17.4642 6.44075 17.6013 5.93694C17.637 5.80437 17.6551 5.67379 17.6551 5.5487C17.6551 5.33954 17.6043 5.14661 17.5064 4.97584C17.1035 4.27031 16.0147 4.1297 15.0811 4.66348C14.5515 4.96747 14.1678 5.43583 14.0286 5.94674C13.9343 6.29553 13.9644 6.63331 14.1224 6.90984C14.5266 7.61477 15.6146 7.7544 16.5471 7.22104ZM17.5064 14.9981C17.6046 14.827 17.6554 14.6345 17.6554 14.4252C17.6554 14.3002 17.637 14.1693 17.6013 14.0371C17.4646 13.5331 17.07 13.0524 16.5474 12.753C15.6146 12.2195 14.5269 12.3592 14.1234 13.0638C13.9652 13.3406 13.9348 13.6782 14.0296 14.027C14.1683 14.5382 14.552 15.0064 15.0819 15.3103C16.0153 15.8441 17.1035 15.7038 17.5064 14.9981Z" fill="#FFFFFF"/>
</svg>
